<?xml version="1.0" encoding="UTF-8"?>
<svg id="Capa_1" xmlns="http://www.w3.org/2000/svg" version="1.1" viewBox="0 0 486 92.9">
  <!-- Generator: Adobe Illustrator 29.6.1, SVG Export Plug-In . SVG Version: 2.1.1 Build 9)  -->
  <defs>
    <style>
      .st0 {
        fill: #344156;
      }
    </style>
  </defs>
  <path class="st0" d="M46.4,28.2c-1-1.3-2.4-2.2-4.1-2.8-1.7-.6-3.4-.9-4.9-.9s-1.8.1-2.8.3c-1,.2-1.9.5-2.7,1-.9.5-1.5,1.1-2.1,1.8-.5.7-.8,1.7-.8,2.7,0,1.7.6,3,1.9,3.9,1.3.9,2.9,1.7,4.8,2.3,1.9.6,4,1.3,6.3,1.9,2.2.6,4.3,1.5,6.3,2.7,1.9,1.2,3.6,2.7,4.8,4.7,1.3,2,1.9,4.6,1.9,7.9s-.6,5.9-1.8,8.2-2.8,4.3-4.8,5.8-4.3,2.7-7,3.4c-2.6.7-5.4,1.1-8.4,1.1s-7.1-.6-10.2-1.7-6.1-2.9-8.8-5.4l8.9-9.8c1.3,1.7,2.9,3,4.8,4,1.9.9,4,1.4,6,1.4s2,0,3.1-.4,2-.6,2.8-1.1,1.5-1.1,2-1.8.8-1.6.8-2.6c0-1.7-.7-3.1-2-4-1.3-1-2.9-1.8-4.9-2.5s-4.1-1.4-6.4-2.1c-2.3-.7-4.4-1.6-6.4-2.8s-3.6-2.7-4.9-4.6c-1.3-1.9-2-4.5-2-7.6s.6-5.7,1.8-8c1.2-2.3,2.8-4.2,4.8-5.8,2-1.5,4.3-2.7,6.9-3.5s5.3-1.2,8.1-1.2,6.3.5,9.3,1.4,5.7,2.4,8.1,4.6l-8.6,9.4h.2Z"/>
  <path class="st0" d="M62.8,32.2h11.5v5.3h.2c.4-.7.9-1.5,1.6-2.2s1.5-1.4,2.5-2,2.1-1.1,3.3-1.4c1.2-.4,2.6-.6,4-.6,2.7,0,5.1.6,7.2,1.7,2.1,1.1,3.7,2.9,4.8,5.3,1.4-2.5,3.1-4.3,5-5.4,2-1.1,4.4-1.6,7.3-1.6s4.8.4,6.6,1.3c1.8.9,3.2,2.1,4.2,3.6s1.8,3.3,2.2,5.4.7,4.3.7,6.6v23h-12v-22.6c0-1.8-.4-3.4-1.2-4.7-.8-1.3-2.1-2-4.1-2s-2.5.2-3.5.7c-.9.5-1.7,1.1-2.2,1.9-.6.8-1,1.7-1.2,2.8s-.4,2.2-.4,3.4v20.6h-12v-23.2c0-1-.2-2-.6-2.9-.3-.9-.8-1.7-1.6-2.3-.7-.6-1.8-1-3.2-1s-2.8.3-3.8.8c-1,.6-1.7,1.3-2.2,2.2s-.8,2-1,3.2-.2,2.4-.2,3.7v19.4h-12v-38.9h0Z"/>
  <path class="st0" d="M156.8,66.2h-.2c-1.3,2.1-3.1,3.6-5.3,4.5s-4.5,1.4-7,1.4-3.6-.3-5.2-.8-3.2-1.3-4.4-2.3c-1.3-1-2.3-2.3-3-3.8s-1.1-3.2-1.1-5.2.4-4.1,1.2-5.7,1.9-2.8,3.4-3.8c1.4-1,3-1.8,4.8-2.4,1.8-.6,3.7-1,5.6-1.2,1.9-.3,3.9-.4,5.8-.5h5.4c0-2.1-.8-3.8-2.3-5.1s-3.3-1.9-5.4-1.9-3.8.4-5.4,1.2c-1.6.8-3.1,2-4.4,3.4l-6.4-6.6c2.2-2.1,4.9-3.6,7.8-4.7,3-1,6.1-1.6,9.3-1.6s6.4.4,8.7,1.3,4.1,2.2,5.4,3.9,2.3,3.8,2.8,6.3.8,5.3.8,8.6v19.8h-11v-4.9h0ZM153.8,54c-.9,0-2,0-3.4,0-1.4,0-2.7.3-3.9.7-1.3.4-2.3.9-3.2,1.7-.9.7-1.3,1.8-1.3,3.1s.6,2.5,1.8,3.2,2.5,1,3.8,1,2.3-.2,3.4-.5c1.1-.3,2.1-.8,2.9-1.4.9-.6,1.5-1.3,2-2.2s.8-2,.8-3.2v-2.6h-3,0Z"/>
  <path class="st0" d="M175.4,32.2h12v6.2h.2c1.3-2.4,2.8-4.2,4.6-5.4s4-1.8,6.6-1.8,1.4,0,2.1,0,1.3.2,1.9.3v11c-.9-.3-1.7-.5-2.5-.6s-1.7-.2-2.6-.2c-2.3,0-4.1.3-5.4,1-1.3.6-2.4,1.5-3.1,2.7s-1.2,2.5-1.4,4.1-.3,3.4-.3,5.3v16.2h-12v-38.9h-.1Z"/>
  <path class="st0" d="M234.4,41.8h-10.6v13c0,1.1,0,2,.2,2.9.1.9.3,1.6.7,2.3.4.6.9,1.1,1.7,1.5.8.3,1.8.5,3.1.5s1.5,0,2.5-.2,1.8-.4,2.4-.9v10c-1.3.5-2.7.8-4.2,1-1.4.2-2.9.2-4.2.2-2,0-3.9-.2-5.6-.6-1.7-.4-3.2-1.1-4.5-2s-2.3-2.1-3-3.6-1.1-3.3-1.1-5.4v-18.5h-7.7v-9.6h7.7v-11.5h12v11.5h10.6v9.6-.2Z"/>
  <path class="st0" d="M265.5,14.4h12.5v56.6h-12.5V14.4Z"/>
  <path class="st0" d="M287.8,32.2h11.5v5.3h.2c.4-.7.9-1.5,1.6-2.2s1.5-1.4,2.5-2,2.1-1.1,3.3-1.4c1.2-.4,2.6-.6,4-.6,3,0,5.5.5,7.4,1.4s3.3,2.2,4.4,3.9c1,1.7,1.7,3.6,2.1,5.8s.6,4.7.6,7.3v21.4h-12v-19c0-1.1,0-2.3-.1-3.5,0-1.2-.3-2.3-.7-3.3-.4-1-1-1.8-1.8-2.5-.8-.6-2-1-3.6-1s-2.8.3-3.8.8c-1,.6-1.7,1.3-2.2,2.2s-.8,2-1,3.2-.2,2.4-.2,3.7v19.4h-12v-38.9h-.2Z"/>
  <path class="st0" d="M329.7,32.2h13l9.8,26.4h.2l9.1-26.4h12.1l-15.4,38.9h-12.7s-16.1-38.9-16.1-38.9Z"/>
  <path class="st0" d="M377.4,19.9c0-1.9.7-3.6,2-4.9,1.4-1.4,3-2,4.9-2s3.6.7,4.9,2c1.4,1.4,2,3,2,4.9s-.7,3.6-2,4.9c-1.4,1.4-3,2-4.9,2s-3.6-.7-4.9-2c-1.4-1.4-2-3-2-4.9ZM378.4,32.2h12v38.9h-12v-38.9Z"/>
  <path class="st0" d="M425.5,41.8h-10.6v13c0,1.1,0,2,.2,2.9.1.9.3,1.6.7,2.3.4.6.9,1.1,1.7,1.5.8.3,1.8.5,3.1.5s1.5,0,2.5-.2,1.8-.4,2.4-.9v10c-1.3.5-2.7.8-4.2,1-1.4.2-2.9.2-4.2.2-2,0-3.9-.2-5.6-.6s-3.2-1.1-4.5-2-2.3-2.1-3-3.6-1.1-3.3-1.1-5.4v-18.5h-7.7v-9.6h7.7v-11.5h12v11.5h10.6v9.6-.2Z"/>
  <path class="st0" d="M468.4,64.3c-1.9,2.5-4.3,4.3-7.3,5.7-2.9,1.3-6,2-9.1,2s-5.8-.5-8.4-1.4c-2.6-1-4.9-2.3-6.9-4.1-1.9-1.8-3.5-3.9-4.6-6.4s-1.7-5.3-1.7-8.4.6-5.9,1.7-8.4,2.7-4.7,4.6-6.4c1.9-1.8,4.2-3.2,6.9-4.1,2.6-1,5.5-1.4,8.4-1.4s5.3.5,7.6,1.4c2.3,1,4.2,2.3,5.8,4.1,1.6,1.8,2.8,3.9,3.6,6.4.9,2.5,1.3,5.3,1.3,8.4v3.8h-27.8c.5,2.3,1.5,4.1,3.1,5.5s3.6,2,5.9,2,3.6-.4,5-1.3c1.4-.9,2.5-2,3.6-3.4l8.4,6.2v-.2ZM458.2,47.2c0-2-.6-3.8-2-5.2s-3.2-2.2-5.4-2.2-2.5.2-3.5.6c-1,.4-1.9,1-2.6,1.6-.7.7-1.3,1.4-1.7,2.3-.4.9-.6,1.8-.7,2.8h15.9Z"/>
</svg>