<?xml version="1.0" encoding="UTF-8"?>
<svg id="Capa_1" xmlns="http://www.w3.org/2000/svg" version="1.1" viewBox="0 0 500 500">
  <!-- Generator: Adobe Illustrator 29.5.1, SVG Export Plug-In . SVG Version: 2.1.0 Build 141)  -->
  <defs>
    <style>
      .st0 {
        fill: #f43f5f;
      }
    </style>
  </defs>
  <path class="st0" d="M466.9,122c-3.4-24.1-14.8-47.4-30.9-65.6-32.2-36-79.5-50.4-126.5-41-17.3,3.4-33.8,10.2-49.1,19.9-24.5,16.1-43.6,39.8-55,66.4-15.2-22.8-37.7-41-64.3-48.2-11-3-22.8-4.2-34.3-3.4-22.4,1.7-44.4,11-60.1,27.1-13.1,13.5-20.7,32.2-23.3,50.8-2.5,20.3,0,40.6,4.7,60.5,21.6,86.7,104.9,173.5,185.8,209,3.4,1.7,7.2-.8,8-4.2,8-20.3,19-39.8,31.3-58,13.1-19.5,27.5-37.7,43.6-55,10.6-11.8,22-22.8,33.8-33.4,24.1-20.3,55-49.5,60.5-82.1.8-5.1,1.3-10.6.8-16.1-.8-17.3-8-34.7-22-45.7-12.7-10.2-28.8-14.8-44.9-15.2-9.7,0-19.9,1.7-28.8,5.9-19.5,9.3-31.7,29.6-37.2,49.9,0,1.3,1.7,2.1,2.1.4,3.8-13.1,10.6-25.8,20.3-35.1,2.5-2.5,5.5-5.1,8.5-6.8l.8-.4.8-.4c1.3-.8,2.5-1.7,3.8-2.1.8,0,1.7-.8,2.5-1.3.4,0,2.1-.8,2.5-.8,20.3-7.2,47.4-1.3,63,13.1,11,9.7,15.2,24.5,15.2,38.9s-4.7,22.4-12.7,32.2c-6.8,8-15.2,15.2-23.3,22-10.6,8.9-21.6,17.3-32.2,26.2-16.5,14.8-31.7,31.3-45.3,49.1-11.8,15.7-22.8,31.7-31.7,49.1-9.3,17.8-17.3,36.4-22,55.9-9.3-3.8-18.2-8.5-27.1-13.1-52.9-30-99-77-127.8-130.3-1.7-3.4-3.8-7.2-5.1-10.6-.4-.8-1.3-3-1.7-3.8h0c0-.4-1.7-4.7-1.7-4.7-2.5-5.5-4.7-11.4-6.8-17.3-.4-1.3-.8-3-1.3-4.2,0-1.3-.8-3.4-1.3-4.2-4.7-16.5-7.2-33-7.2-50.4.4-28.3,10.6-55,36-69.8,9.3-5.5,20.3-8.9,30.9-10.2,13.5-1.7,27.9,0,40.2,5.5,9.7,4.2,19,10.2,26.7,17.8,16.5,16.1,26.7,38.1,29.2,59.7,1.3,5.9,5.9,11,12.7,11.8,8.5,1.3,16.5-4.7,17.3-13.1,2.1-14,6.8-27.5,13.5-39.8,11.4-21.6,29.2-39.8,51.2-50.4,24.5-11.8,54.2-14.8,80.4-6.3,30.5,9.7,55.9,36.4,64.3,67.3.4,2.5,1.3,5.1,1.7,7.2v1.7h0v14.4c0,15.2-3.8,30.5-9.7,44.9-21.6,52.9-69.8,88.9-109.6,127.8-8.9,8.5-17.3,17.3-25.4,26.7-8,9.3-15.7,19.5-22,30.5-12.3,20.7-21.2,44-22.4,68.1-.4,9.3,0,18.6,2.5,27.9,0,.8.8,1.3,1.3,1.3.8,0,1.7-.4,1.7-1.3.4-3.8.8-8,1.7-11.8.8-4.2,1.7-8.5,3-12.7,5.1-17.8,13.5-34.3,23.7-49.9,10.6-15.7,22.8-30.5,36.4-43.6,36.8-36.8,81.2-66.9,112.6-109.2,14-19,25.8-40.2,32.2-63,5.1-17.8,6.8-36.8,4.2-55l.8.8Z"/>
</svg>